# xmcd
#
# Track frame offsets:
#	150
#	15781
#	30030
#	43015
#	57461
#	66320
#	82654
#	99275
#	112795
#	129547
#	142081
#	155153
#	169643
#
# Disc length: 2460 seconds
#
# Revision: 1
# Processed by: cddbd v1.5PL3 Copyright (c) Steve Scherf et al.
# Submitted via: audiograbber 1.82.02
#
DISCID=97099a0d
DTITLE=Arly Karlsen - Country Home
DYEAR=2004
DGENRE=Country
TTITLE0=Uncle Herman`s
TTITLE1=500 Miles Away From Home
TTITLE2=Plesae Don`t Stop Loving Me
TTITLE3=Montego Bay
TTITLE4=I`ll Be Your Sugar Daddy
TTITLE5=Fopur Strong Winds
TTITLE6=I Wish It Was That Easy
TTITLE7=Here`s To You (The Man In Black)
TTITLE8=She`s A Tango
TTITLE9=Sea Of Heartbreak
TTITLE10=It Ain`t Easy
TTITLE11=Living In The Past Tense
TTITLE12=Someone In Someone Else`s Arms
EXTD=
EXTT0=
EXTT1=
EXTT2=
EXTT3=
EXTT4=
EXTT5=
EXTT6=
EXTT7=
EXTT8=
EXTT9=
EXTT10=
EXTT11=
EXTT12=
PLAYORDER=
